<svg enable-background="new 0 0 480 480" viewBox="0 0 480 480"><path d="m472 307.999c4.418 0 8-3.582 8-8v-64c0-4.418-3.582-8-8-8h-100.688l50.344-50.344c3.123-3.124 3.123-8.188 0-11.312l-43.712-43.712c-3.124-3.123-8.188-3.123-11.312 0-12.499 12.499-32.765 12.499-45.264 0s-12.499-32.765 0-45.264c3.123-3.124 3.123-8.188 0-11.312l-35.712-35.712c-3.124-3.123-8.188-3.123-11.312 0l-197.656 197.656h-68.688c-4.418 0-8 3.582-8 8v64c0 4.418 3.582 8 8 8 17.673 0 32 14.327 32 32s-14.327 32-32 32c-4.418 0-8 3.582-8 8v64c0 4.418 3.582 8 8 8h464c4.418 0 8-3.582 8-8v-64c0-4.418-3.582-8-8-8-17.673 0-32-14.327-32-32s14.327-32 32-32zm-192-260.688 24.864 24.864c-15.411 21.57-10.418 51.549 11.152 66.96 16.691 11.926 39.117 11.926 55.808 0l32.864 32.864-56 56h-25.376l18.344-18.344c3.123-3.124 3.123-8.188 0-11.312l-88-88c-3.124-3.123-8.188-3.123-11.312 0l-117.656 117.656h-25.376zm20.688 180.688h-153.376l100.688-100.688 76.688 76.688zm123.932 119.956c3.392 20.178 19.202 35.988 39.38 39.38v48.664h-64v-32h-16v32h-288v-8h-16v8h-64v-48.664c26.143-4.394 43.774-29.149 39.38-55.292-3.392-20.178-19.201-35.988-39.38-39.38v-48.664h64v24h16v-24h368v48.664c-26.143 4.394-43.774 29.15-39.38 55.292z"/><path d="m384 259.999h16v32h-16z"/><path d="m384 307.999h16v32h-16z"/><path d="m384 355.999h16v32h-16z"/><path d="m80 283.999h16v32h-16z"/><path d="m80 331.999h16v32h-16z"/><path d="m80 379.999h16v32h-16z"/><path d="m352 283.999c-8.837 0-16-7.163-16-16 0-4.418-3.582-8-8-8h-176c-4.418 0-8 3.582-8 8 0 8.837-7.163 16-16 16-4.418 0-8 3.582-8 8v96c0 4.418 3.582 8 8 8 8.837 0 16 7.163 16 16 0 4.418 3.582 8 8 8h176c4.418 0 8-3.582 8-8 0-8.837 7.163-16 16-16 4.418 0 8-3.582 8-8v-96c0-4.418-3.582-8-8-8zm-8 97.008c-11.263 2.934-20.058 11.729-22.992 22.992h-162.016c-2.934-11.263-11.729-20.058-22.992-22.992v-82.016c11.263-2.934 20.058-11.729 22.992-22.992h162.016c2.934 11.263 11.729 20.058 22.992 22.992z"/></svg>